<?xml version="1.0" encoding="iso-8859-1"?>
<!-- Generator: Adobe Illustrator 19.0.0, SVG Export Plug-In . SVG Version: 6.00 Build 0)  -->
<svg version="1.1" id="Capa_1" xmlns="http://www.w3.org/2000/svg" xmlns:xlink="http://www.w3.org/1999/xlink" x="0px" y="0px"
	 viewBox="0 0 512.064 512.064" style="enable-background:new 0 0 512.064 512.064;" xml:space="preserve">
<path style="fill:#87CED9;" d="M39.721,0h353.103c19.5,0,35.31,15.81,35.31,35.31v282.483c0,19.5-15.81,35.31-35.31,35.31H39.721
	c-19.5,0-35.31-15.81-35.31-35.31V35.31C4.411,15.81,20.212,0,39.721,0z"/>
<g>
	<rect x="30.893" y="26.483" style="fill:#4398D1;" width="17.655" height="17.655"/>
	<rect x="66.204" y="26.483" style="fill:#4398D1;" width="17.655" height="17.655"/>
	<rect x="101.514" y="26.483" style="fill:#4398D1;" width="17.655" height="17.655"/>
	<path style="fill:#4398D1;" d="M92.687,70.621H445.79c19.5,0,35.31,15.81,35.31,35.31v282.483c0,19.5-15.81,35.31-35.31,35.31
		H92.687c-19.5,0-35.31-15.81-35.31-35.31V105.931C57.376,86.431,73.178,70.621,92.687,70.621z"/>
</g>
<path style="fill:#3F8FC4;" d="M445.79,70.621h-41.94c-63.267,201.437-184.417,303.245-268.288,353.103H445.79
	c19.5,0,35.31-15.81,35.31-35.31V105.931C481.1,86.431,465.29,70.621,445.79,70.621z"/>
<g>
	<rect x="83.859" y="97.103" style="fill:#87CED9;" width="17.655" height="17.655"/>
	<rect x="119.169" y="97.103" style="fill:#87CED9;" width="17.655" height="17.655"/>
	<rect x="154.48" y="97.103" style="fill:#87CED9;" width="17.655" height="17.655"/>
</g>
<g>
	<rect x="83.859" y="353.103" style="fill:#3685BA;" width="370.759" height="17.655"/>
	<rect x="101.514" y="282.483" style="fill:#3685BA;" width="17.655" height="52.966"/>
	<rect x="136.824" y="229.517" style="fill:#3685BA;" width="17.655" height="105.931"/>
	<rect x="172.135" y="256" style="fill:#3685BA;" width="17.655" height="79.448"/>
	<rect x="207.445" y="194.207" style="fill:#3685BA;" width="17.655" height="141.241"/>
	<rect x="242.756" y="176.552" style="fill:#3685BA;" width="17.655" height="158.897"/>
	<rect x="278.066" y="185.379" style="fill:#3685BA;" width="17.655" height="61.793"/>
	<rect x="313.376" y="150.069" style="fill:#3685BA;" width="17.655" height="97.103"/>
	<rect x="348.687" y="132.414" style="fill:#3685BA;" width="17.655" height="114.759"/>
	<rect x="383.997" y="167.724" style="fill:#3685BA;" width="17.655" height="167.724"/>
	<rect x="419.307" y="203.034" style="fill:#3685BA;" width="17.655" height="132.414"/>
</g>
<rect x="422.717" y="370.95" transform="matrix(-0.7071 0.7071 -0.7071 -0.7071 1068.8613 448.9745)" style="fill:#FDB62F;" width="37.455" height="149.812"/>
<rect x="387.342" y="385.546" transform="matrix(-0.7071 0.7071 -0.7071 -0.7071 983.482 413.6566)" style="fill:#FA962A;" width="37.455" height="49.937"/>
<circle style="fill:#FDB62F;" cx="322.204" cy="335.448" r="114.759"/>
<circle style="fill:#87CED9;" cx="322.204" cy="335.448" r="79.448"/>
<g>
	<path style="fill:#4398D1;" d="M244.795,353.103c1.395,6.118,3.513,12.041,6.321,17.655h142.177
		c2.807-5.614,4.926-11.538,6.321-17.655H244.795z"/>
	<path style="fill:#4398D1;" d="M331.031,335.448v-78.927c-5.862-0.697-11.794-0.697-17.655,0v78.927H331.031z"/>
	<path style="fill:#4398D1;" d="M295.721,335.448v-74.831c-6.232,2.18-12.156,5.129-17.655,8.783v66.048H295.721z"/>
	<path style="fill:#4398D1;" d="M366.342,335.448V269.4c-5.5-3.655-11.423-6.603-17.655-8.783v74.831H366.342z"/>
	<path style="fill:#4398D1;" d="M260.411,285.564c-11.441,14.106-17.673,31.726-17.655,49.885h17.655V285.564z"/>
	<path style="fill:#4398D1;" d="M383.997,335.448h17.655c0.018-18.158-6.215-35.778-17.655-49.885V335.448z"/>
</g>
<g>
</g>
<g>
</g>
<g>
</g>
<g>
</g>
<g>
</g>
<g>
</g>
<g>
</g>
<g>
</g>
<g>
</g>
<g>
</g>
<g>
</g>
<g>
</g>
<g>
</g>
<g>
</g>
<g>
</g>
</svg>
