<?xml version="1.0" encoding="iso-8859-1"?>
<!-- Generator: Adobe Illustrator 19.0.0, SVG Export Plug-In . SVG Version: 6.00 Build 0)  -->
<svg version="1.1" id="Layer_1" xmlns="http://www.w3.org/2000/svg" xmlns:xlink="http://www.w3.org/1999/xlink" x="0px" y="0px"
	 viewBox="0 0 512 512" style="enable-background:new 0 0 512 512;" xml:space="preserve">
<path style="fill:#C1C1C1;" d="M474.06,147.361v274.143H37.94V147.361c0-8.962,7.268-16.218,16.241-16.218h403.638
	C466.792,131.143,474.06,138.399,474.06,147.361z"/>
<path style="fill:#00ABE0;" d="M445.411,190.501v172.617c0,5.083-4.121,9.204-9.204,9.204H75.792c-5.083,0-9.204-4.121-9.204-9.204
	V190.501c0-5.083,4.121-9.204,9.204-9.204h360.415C441.291,181.297,445.411,185.418,445.411,190.501z"/>
<path style="fill:#099DD1;" d="M445.411,190.501v30.019H66.589v-30.019c0-5.083,4.121-9.204,9.204-9.204h360.415
	C441.291,181.297,445.411,185.418,445.411,190.501z"/>
<g>
	<path style="fill:#B5B5B5;" d="M474.06,147.361v120.693c-23.944,18.816-53.314,29.025-84.24,29.025
		c-36.522,0-70.848-14.227-96.681-40.048c-25.821-25.821-40.036-60.157-40.036-96.669c0-9.947,1.053-19.732,3.125-29.221h201.59
		C466.792,131.143,474.06,138.399,474.06,147.361z"/>
	<rect x="37.936" y="394.104" style="fill:#B5B5B5;" width="436.132" height="27.402"/>
</g>
<g>
	<path style="fill:#099DD1;" d="M445.411,181.297v104.04c-17.271,7.703-36.122,11.743-55.591,11.743
		c-36.522,0-70.848-14.227-96.681-40.048c-20.819-20.819-34.096-47.167-38.446-75.735L445.411,181.297L445.411,181.297z"/>
	<path style="fill:#099DD1;" d="M445.411,181.297v39.224H266.988c-6.066-12.316-10.209-25.513-12.293-39.224H445.411z"/>
</g>
<path style="fill:#E2E2E2;" d="M511.652,431.022l-4.246,13.358c-3.544,11.195-13.956,18.8-25.715,18.8H30.308
	c-11.759,0-22.171-7.605-25.715-18.8l-4.246-13.358c-1.496-4.717,2.025-9.515,6.984-9.515h497.337
	C509.627,421.507,513.148,426.304,511.652,431.022z"/>
<path style="fill:#B5B5B5;" d="M260.675,165.345h-9.351c-4.766,0-8.629-3.864-8.629-8.629s3.864-8.629,8.629-8.629h9.351
	c4.767,0,8.629,3.864,8.629,8.629S265.441,165.345,260.675,165.345z"/>
<g>
	<path style="fill:#FFDC65;" d="M169.026,317.55h-33.809c-5.083,0-9.204-4.121-9.204-9.204v-33.713c0-5.083,4.121-9.204,9.204-9.204
		h33.809c5.083,0,9.204,4.121,9.204,9.204v33.713C178.23,313.428,174.11,317.55,169.026,317.55z"/>
	<path style="fill:#FFDC65;" d="M304.597,284.808h-88.322c-4.766,0-8.629-3.864-8.629-8.629s3.864-8.629,8.629-8.629h88.322
		c4.767,0,8.629,3.864,8.629,8.629S309.364,284.808,304.597,284.808z"/>
	<path style="fill:#FFDC65;" d="M304.597,315.428h-88.322c-4.766,0-8.629-3.864-8.629-8.629s3.864-8.629,8.629-8.629h88.322
		c4.767,0,8.629,3.864,8.629,8.629S309.364,315.428,304.597,315.428z"/>
	<circle style="fill:#FFDC65;" cx="389.822" cy="160.355" r="111.535"/>
</g>
<path style="fill:#FFC846;" d="M476.705,230.295c-20.431,25.374-51.757,41.604-86.882,41.604
	c-61.6,0-111.537-49.937-111.537-111.537c0-35.745,16.813-67.563,42.978-87.97c-14.742,18.908-23.521,42.68-23.521,68.513
	c0,61.6,49.937,111.537,111.537,111.537c23.646,0,45.565-7.359,63.603-19.904C474.175,231.817,475.445,231.061,476.705,230.295z"/>
<circle style="fill:#FFEB8E;" cx="389.822" cy="160.355" r="69.77"/>
<path style="fill:#FFC846;" d="M403.39,140.601c0,4.766,3.862,8.629,8.629,8.629s8.629-3.864,8.629-8.629
	c0-12.002-8.749-22.177-20.75-25.534c-0.123-4.659-3.929-8.399-8.618-8.399c-4.689,0-8.495,3.74-8.618,8.399
	c-12,3.357-20.749,13.533-20.749,25.534c0,11.997,8.743,22.17,20.738,25.531v16.927c-2.138-1.714-3.479-4.034-3.479-6.549
	c0-4.766-3.862-8.629-8.629-8.629s-8.629,3.864-8.629,8.629c0,11.997,8.743,22.17,20.738,25.531v0.7
	c0,4.766,3.862,8.629,8.629,8.629s8.629-3.864,8.629-8.629v-0.701c11.996-3.36,20.739-13.533,20.739-25.531
	c0-11.998-8.743-22.171-20.739-25.531v-16.927C402.049,135.765,403.39,138.085,403.39,140.601z M382.651,147.146
	c-2.137-1.713-3.479-4.03-3.479-6.544c0-2.515,1.342-4.836,3.479-6.55V147.146z M403.39,176.509c0,2.515-1.343,4.836-3.48,6.55
	v-13.095C402.046,171.678,403.39,173.995,403.39,176.509z"/>
<g>
</g>
<g>
</g>
<g>
</g>
<g>
</g>
<g>
</g>
<g>
</g>
<g>
</g>
<g>
</g>
<g>
</g>
<g>
</g>
<g>
</g>
<g>
</g>
<g>
</g>
<g>
</g>
<g>
</g>
</svg>
