<svg id="Capa_1" enable-background="new 0 0 506.024 506.024" height="512" viewBox="0 0 506.024 506.024" width="512" xmlns="http://www.w3.org/2000/svg"><g><path d="m506.024 86.726v230.474l-25.12 7.658h-436.482l-44.422-7.658v-230.474c0-16.912 13.715-30.637 30.637-30.637h444.75c16.922 0 30.637 13.726 30.637 30.637z" fill="#8ac9fe"/><path d="m61.274 56.089c-16.922 0-30.637 13.725-30.637 30.637v230.474l-6.901 5.905h-17.382l-6.354-5.905v-230.474c0-16.912 13.715-30.637 30.637-30.637z" fill="#60b7ff"/><path d="m203.741 332.515h98.55v136.846h-98.55z" fill="#e8edf2"/><path d="m203.737 332.518h30.637v136.846h-30.637z" fill="#c5d3dd"/><path d="m203.737 332.518h30.637v136.846h-30.637z" fill="#d9e7ec"/><path d="m214.46 157.761h77.104v212.418h-77.104z" fill="#e8edf2"/><path d="m214.462 157.764h30.637v212.418h-30.637z" fill="#d9e7ec"/><path d="m386.292 459.791v13.02c0 9.94-8.06 18-18 18h-230.55c-9.94 0-18-8.06-18-18v-13.02c0-9.94 8.06-18 18-18h230.55c9.94 0 18 8.06 18 18z" fill="#f5f8f9"/><path d="m506.024 317.2v35.743c0 16.922-13.715 30.637-30.637 30.637h-444.75c-16.922 0-30.637-13.715-30.637-30.637v-35.743z" fill="#f5f8f9"/><path d="m167.762 490.811h-30.02c-9.94 0-18-8.06-18-18v-13.02c0-9.94 8.06-18 18-18h30.02c-10.15 0-18.38 8.23-18.38 18.38v12.26c0 10.15 8.23 18.38 18.38 18.38z" fill="#e8edf2"/><path d="m61.274 383.58h-30.637c-16.922 0-30.637-13.715-30.637-30.637v-35.743h30.637v35.743c0 16.922 13.715 30.637 30.637 30.637z" fill="#e8edf2"/><path d="m344.923 92.401c0 51.959-43.103 93.84-95.507 91.843-49.062-1.87-88.251-42.62-88.316-91.718-.043-32.162 16.427-60.471 41.396-76.921 1.582-1.042 3.692.116 3.692 2.01v79.759c0 2.941 1.532 5.668 4.054 7.179l38.45 23.162c2.655 1.603 5.984 1.603 8.64 0l38.45-23.162c2.522-1.512 4.054-4.238 4.054-7.179v-79.755c0-1.898 2.116-3.053 3.7-2.009 24.932 16.43 41.387 44.684 41.387 76.791z" fill="#f5f8f9"/><path d="m268.332 183.04c-6.117 1.031-12.449 1.45-18.913 1.205-49.06-1.869-88.255-42.616-88.317-91.717-.041-32.159 16.422-60.468 41.391-76.92 1.583-1.042 3.697.112 3.697 2.012v25.286c-9.171 14.318-14.471 31.352-14.45 49.622.061 45.118 33.159 83.189 76.592 90.512z" fill="#e8edf2"/></g></svg>